<svg xmlns="http://www.w3.org/2000/svg" viewBox="0 0 64 64" width="64" height="64">
  <defs>
    <linearGradient id="bg" x1="0%" y1="0%" x2="100%" y2="100%">
      <stop offset="0%" stop-color="#22c55e"/>
      <stop offset="100%" stop-color="#15803d"/>
    </linearGradient>
  </defs>
  <rect width="64" height="64" rx="14" ry="14" fill="url(#bg)"/>
  <circle cx="32" cy="16" r="6.5" fill="white"/>
  <rect x="25" y="24" width="14" height="13" rx="4" fill="white"/>
  <rect x="11" y="25" width="14" height="5" rx="2.5" fill="white"/>
  <rect x="39" y="25" width="14" height="5" rx="2.5" fill="white"/>
  <path d="M32 54 L22.5 45 C19 41.5 19 36.5 22.5 33 C25 30.5 28.5 30 31 32.5 L32 33.5 L33 32.5 C35.5 30 39 30.5 41.5 33 C45 36.5 45 41.5 41.5 45 Z" fill="white" opacity="0.95"/>
</svg>
